<svg xmlns="http://www.w3.org/2000/svg" viewBox="0 0 313.71 101.16"><defs><style>.cls-1{fill:#c69c6d;}.cls-2{font-size:24px;fill:#fff;font-family:SourceSansPro-Black, Source Sans Pro;letter-spacing:0.2em;}.cls-3{letter-spacing:0.18em;}</style></defs><title>about-title</title><g id="Layer_2" data-name="Layer 2"><g id="Layer_1-2" data-name="Layer 1"><path class="cls-1" d="M39.2,31.25a7.25,7.25,0,0,0-1.3-.22,13.8,13.8,0,0,0-1.76,0,3.39,3.39,0,0,0-2.69,1.29q-.89,1.19-1.86,2.58-1.14,1.78-2.36,3.89t-2.16,4.07q-.86,1.67-2,4T22.59,51.7Q21.29,54.29,20,56.93t-2.54,5a26.7,26.7,0,0,1-4.29,6.18,25.82,25.82,0,0,1-4.7,3.82c-.37.21-.58.41-.63.6s.2.27.77.24q2.64-.43,6.33-.91T22.14,71l6.39-.77q2.84-.34,4-.4l1.23-.07q.85,0,1.71,0h1.62a7.09,7.09,0,0,1,1.15.08q1.54.3,1.59,1.25a7.93,7.93,0,0,1-.33,1.87,15,15,0,0,1-.69,2.18c-.13,0-.2-.12-.21-.37a3.28,3.28,0,0,0-.19-.94,1,1,0,0,0-.75-.63,15,15,0,0,0-3.27-.68q-1.82-.19-3.73-.23t-3.71,0q-1.81,0-3.42.13-5.51.29-9.25.68T8,73.85q-2.55.42-4.14.84T1,75.56a1.28,1.28,0,0,1-.69-.39,1,1,0,0,1-.32-.6c0-.38.22-.58.73-.61a21.68,21.68,0,0,0,3-.35A6,6,0,0,0,6,72.72,12.24,12.24,0,0,0,8.75,70a42.44,42.44,0,0,0,3.1-5.16q1.82-3.43,3.83-7.54t4-8.36q2-4.25,4-8.3t3.62-7.19a1.38,1.38,0,0,1,.58-.75,8.63,8.63,0,0,1,.88-.47,25.6,25.6,0,0,1,4.92-1.5A34.69,34.69,0,0,1,39,29.92a.6.6,0,0,1,.46.64A.84.84,0,0,1,39.2,31.25Z"/><path class="cls-1" d="M76,54.61a19.41,19.41,0,0,1-3.73,4.15,8.54,8.54,0,0,1-5.17,2,6.89,6.89,0,0,1-3.22-.64,6.16,6.16,0,0,1-2.65-2.29q-.58,1.56-1.52,3.56a33.17,33.17,0,0,1-2.26,4,24.37,24.37,0,0,1-3,3.73A17.67,17.67,0,0,1,50.8,72,7.36,7.36,0,0,1,48,73q-3.42.18-3.58-2.85a10.81,10.81,0,0,1,.43-3.55A21.73,21.73,0,0,1,46.23,63a32.81,32.81,0,0,1,1.87-3.34A20.1,20.1,0,0,1,50,57a19.81,19.81,0,0,1,4.36-3.95A13.19,13.19,0,0,1,59.77,51a15.69,15.69,0,0,1,.48-1.79A1.74,1.74,0,0,1,61.52,48l.94-.24a3.35,3.35,0,0,0,.84-.33.54.54,0,0,1,.57-.08c.2.08.24.26.12.52a7.91,7.91,0,0,0-.86,2.71A17.4,17.4,0,0,0,63,54.07a8.59,8.59,0,0,0,1.23,4.31,3.68,3.68,0,0,0,3.56,1.53,6.92,6.92,0,0,0,4.38-1.85,17.32,17.32,0,0,0,3.14-3.69c.11-.32.31-.43.6-.32S76.2,54.35,76,54.61Zm-15.63,1.5a14.82,14.82,0,0,1-.39-2c-.1-.76-.17-1.48-.21-2.18,0-.32-.15-.47-.4-.46a4.15,4.15,0,0,0-2.15.83,12.11,12.11,0,0,0-2.18,2,29.6,29.6,0,0,0-2.13,2.83,33.57,33.57,0,0,0-1.92,3.24,35.09,35.09,0,0,0-2,4.63,10.85,10.85,0,0,0-.66,4.65,3.19,3.19,0,0,0,.3,1.22,1,1,0,0,0,1.12.51,5.39,5.39,0,0,0,3.42-2A28.26,28.26,0,0,0,56.52,65a34.13,34.13,0,0,0,2.63-5A14.5,14.5,0,0,0,60.33,56.11Z"/><path class="cls-1" d="M93.14,57.12a46.74,46.74,0,0,1-3,3.83q-1.71,1.95-3.52,3.71a37.48,37.48,0,0,1-3.73,3.2,23,23,0,0,1-3.69,2.29,15.17,15.17,0,0,1-2.57.95,11.53,11.53,0,0,1-2.22.36q-5.22.28-5.45-4.09a9.71,9.71,0,0,1,.57-3.65,25.19,25.19,0,0,1,4.66-8.2A21.2,21.2,0,0,1,81,50.06a5.17,5.17,0,0,1,1.87-.58q3.51-.19,3.66,2.57a3.22,3.22,0,0,1-.55,2.22A22.72,22.72,0,0,1,84.13,56l-.29-.08a4.56,4.56,0,0,0,.2-1.63,2.79,2.79,0,0,0-.81-1.77A2.75,2.75,0,0,0,81,51.78a5.89,5.89,0,0,0-3.4,1.37,11.71,11.71,0,0,0-2.78,3.29A17,17,0,0,0,73,61a17.83,17.83,0,0,0-.48,5.21,3.61,3.61,0,0,0,4,3.78q2.66-.14,7-3.47a48.48,48.48,0,0,0,9.14-9.87c.3-.33.53-.42.7-.27S93.44,56.79,93.14,57.12Z"/><path class="cls-1" d="M121.32,55.34q-2,2.78-4.51,5.62a62.71,62.71,0,0,1-5,5.17,29.35,29.35,0,0,1-5.08,3.79A10.71,10.71,0,0,1,102,71.5a3.23,3.23,0,0,1-2.71-.81,3.68,3.68,0,0,1-.89-2.33,11.17,11.17,0,0,1,.62-3.6,25.2,25.2,0,0,1,2.17-4.92q-1.15,1.68-2.67,3.57a36.14,36.14,0,0,1-3.15,3.45,23.1,23.1,0,0,1-3.29,2.65,6.21,6.21,0,0,1-3,1.16A1.76,1.76,0,0,1,87,68.78a12.79,12.79,0,0,1,1.42-5.6,28.36,28.36,0,0,1,4.26-6.65A30.91,30.91,0,0,1,99,50.86a14.74,14.74,0,0,1,7.57-2.64,5.34,5.34,0,0,1,.78-1.37,3,3,0,0,1,.73-.61l2.62-.9.2.08a6.08,6.08,0,0,0-.84,1.24q-.39.73-.82,1.52.47,0,1.43,0t1.43.12q.48.17.5.45a.25.25,0,0,1-.27.3,7.87,7.87,0,0,0-1.72-.19q-1.14,0-1.71,0-4,7.92-5.76,12.54t-1.68,6.8a2.31,2.31,0,0,0,.5,1.4,2.13,2.13,0,0,0,1.79.48,8.09,8.09,0,0,0,3.55-1.28,26.58,26.58,0,0,0,4.3-3.28,61.94,61.94,0,0,0,4.65-4.77,71.71,71.71,0,0,0,4.51-5.67c.12-.2.24-.25.37-.16A.5.5,0,0,1,121.32,55.34Zm-15.2-6.43a10,10,0,0,0-6,2.61,27.15,27.15,0,0,0-4.94,5.64,33.91,33.91,0,0,0-3.33,6.32A12.54,12.54,0,0,0,90.67,68c0,.51.23.75.61.73A3.91,3.91,0,0,0,93,67.89a26.22,26.22,0,0,0,2.6-2.19,33.82,33.82,0,0,0,2.93-3.15,30.76,30.76,0,0,0,2.7-3.86q1.4-2.36,2.68-5T106.23,49Z"/><path class="cls-1" d="M158.11,4.34a11.49,11.49,0,0,1-.84,3.95,49.84,49.84,0,0,1-2.67,6.09,82.67,82.67,0,0,1-4.36,7.47,80.68,80.68,0,0,1-6,8,78.6,78.6,0,0,1-7.45,7.68,61.26,61.26,0,0,1-8.79,6.61q-.77,1.57-2.16,4.21t-2.7,5.57a61.43,61.43,0,0,0-2.27,5.74,13.13,13.13,0,0,0-.84,4.71q.16,3,2.92,2.89a10.74,10.74,0,0,0,4.87-1.59,28.31,28.31,0,0,0,4.72-3.49,48.44,48.44,0,0,0,4.15-4.27q1.93-2.25,3.26-4c.42-.47.67-.59.74-.37a.74.74,0,0,1-.25.73q-1.6,2.18-3.8,4.68a46.13,46.13,0,0,1-4.7,4.63,29.62,29.62,0,0,1-5.28,3.61,13.36,13.36,0,0,1-5.62,1.63,4.64,4.64,0,0,1-3.62-1,4.12,4.12,0,0,1-1.25-2.84,13,13,0,0,1,1.21-5q1.3-3.26,3.11-6.88t3.63-6.86q1.83-3.24,2.69-4.9l3.06-5.92q1.6-3.08,3.15-6l3-5.63q1.43-2.69,2.65-4.76,1.48-2.55,3.08-4.83a28.48,28.48,0,0,1,4.13-4.6,39.14,39.14,0,0,1,6.4-5,11.69,11.69,0,0,1,4-1.83,1.78,1.78,0,0,1,1.26.36A1.64,1.64,0,0,1,158.11,4.34ZM154,7q-.08-1.52-1.32-1.45a2.34,2.34,0,0,0-1,.34,6.43,6.43,0,0,0-1.41,1.26,30.37,30.37,0,0,0-2,2.63q-1.2,1.68-3.05,4.35-.7,1.09-2,3.15t-3.23,5.46q-2,3.39-4.7,8.34l-6.47,11.72A57.47,57.47,0,0,0,139,34.45a69.54,69.54,0,0,0,8.09-9.9,52.66,52.66,0,0,0,5.2-9.7A19.32,19.32,0,0,0,154,7Z"/><path class="cls-1" d="M180.71,22.85q4.27-.23,7.56-.17a18.39,18.39,0,0,1,5.47.8,7.11,7.11,0,0,1,3.36,2.2,6.88,6.88,0,0,1,1.31,4,9.3,9.3,0,0,1-.5,3.17,11.27,11.27,0,0,1-2,3.68,18.23,18.23,0,0,1-4,3.54,21.13,21.13,0,0,1-6.14,2.75c-.13,0-.18.11-.17.3a.17.17,0,0,0,.2.18l3,.46a10.41,10.41,0,0,1,3.1,1,8.11,8.11,0,0,1,2.53,2,5.52,5.52,0,0,1,1.18,3.41,11.46,11.46,0,0,1-1.14,5.44,16.24,16.24,0,0,1-3.77,5.1,21.18,21.18,0,0,1-6.17,3.9,24.58,24.58,0,0,1-8.42,1.83,36,36,0,0,1-5.91-.21,20.37,20.37,0,0,1-5.89-1.54,11.7,11.7,0,0,0-1.27-.55,2.61,2.61,0,0,0-1-.19,6.5,6.5,0,0,0-2.33.89,15.38,15.38,0,0,0-2.85,2l-.6-.45a20.54,20.54,0,0,0,1.56-2q.39-.64.65-1.13,1.38-2.65,2.85-5.53T164.13,52l2.57-5.37Q167.94,44,169,41.94q.76-1.75,1.84-4t2.14-4.54q1.07-2.34,2-4.63t1.73-4.14a1.07,1.07,0,0,0,.07-.48c0-.19-.21-.28-.58-.25a25.59,25.59,0,0,0-2.93.35q-1.6.28-3.11.59l-2.83.58a15.65,15.65,0,0,1-2.08.3q-1.52.08-1.57-.87a2.19,2.19,0,0,1,.48-1.64c.13,0,.23.08.3.27a1.12,1.12,0,0,0,.83.34,27.15,27.15,0,0,0,3-.06q3-.16,5.74-.45T180.71,22.85ZM193.8,29.1a5.47,5.47,0,0,0-.92-3,5.36,5.36,0,0,0-2.09-1.74,8.62,8.62,0,0,0-2.8-.76,19.81,19.81,0,0,0-3.05-.08,7.67,7.67,0,0,0-1.93.34,2.91,2.91,0,0,0-1.51,1.18,28.87,28.87,0,0,0-2,3.29L177.68,32q-2.83,5.77-6.07,12.89t-6.47,14.44a5.34,5.34,0,0,0-.48,1.74,3.11,3.11,0,0,0,.55,1.4A5.39,5.39,0,0,0,166.86,64a10,10,0,0,0,2.88,1.23,13.73,13.73,0,0,0,4.3.34,19.89,19.89,0,0,0,6.34-1.62A20.87,20.87,0,0,0,186,60.41a16.36,16.36,0,0,0,3.87-5.06,12.15,12.15,0,0,0,1.25-6.11,4.86,4.86,0,0,0-2.31-4.11,11.14,11.14,0,0,0-6-1.35,14.65,14.65,0,0,0-2.92.49,14.35,14.35,0,0,1-2.83.48,1.09,1.09,0,0,1-.44-.21,1.13,1.13,0,0,1-.18-.71,1.2,1.2,0,0,1,.24-.82,1,1,0,0,1,.74-.37,6.92,6.92,0,0,1,2,.18,6.9,6.9,0,0,0,2,.18,15.42,15.42,0,0,0,1.94-.25,8.51,8.51,0,0,0,1.83-.53,19.21,19.21,0,0,0,3.27-2.13,15.63,15.63,0,0,0,2.84-3,13.74,13.74,0,0,0,1.94-3.72A11.31,11.31,0,0,0,193.8,29.1Z"/><path class="cls-1" d="M232.88,49.39q-2,2.78-4.51,5.62a62.7,62.7,0,0,1-5,5.17A29.4,29.4,0,0,1,218.28,64a10.71,10.71,0,0,1-4.72,1.58,3.23,3.23,0,0,1-2.71-.81,3.67,3.67,0,0,1-.89-2.33,11.15,11.15,0,0,1,.62-3.6,25.17,25.17,0,0,1,2.16-4.92q-1.15,1.68-2.67,3.57a35.89,35.89,0,0,1-3.15,3.45,23,23,0,0,1-3.29,2.65,6.23,6.23,0,0,1-3,1.16,1.76,1.76,0,0,1-2.1-1.89,12.78,12.78,0,0,1,1.42-5.6,28.42,28.42,0,0,1,4.26-6.65,30.89,30.89,0,0,1,6.31-5.67,14.74,14.74,0,0,1,7.57-2.64,5.37,5.37,0,0,1,.78-1.37,3,3,0,0,1,.73-.61l2.62-.9.2.08a6.14,6.14,0,0,0-.84,1.24q-.39.74-.82,1.52c.32,0,.79,0,1.43,0s1.11.07,1.43.11.49.26.5.45a.25.25,0,0,1-.27.3,7.88,7.88,0,0,0-1.72-.19q-1.14,0-1.71,0-4,7.92-5.76,12.54T213,62.25a2.31,2.31,0,0,0,.5,1.4,2.12,2.12,0,0,0,1.79.48,8.11,8.11,0,0,0,3.55-1.28,26.67,26.67,0,0,0,4.3-3.28,62,62,0,0,0,4.65-4.77,71.73,71.73,0,0,0,4.51-5.67c.12-.2.24-.25.37-.16A.5.5,0,0,1,232.88,49.39ZM217.68,43a10,10,0,0,0-6,2.61,27.12,27.12,0,0,0-4.94,5.64,33.91,33.91,0,0,0-3.33,6.32,12.56,12.56,0,0,0-1.14,4.54q0,.76.61.73a3.88,3.88,0,0,0,1.72-.85,26.31,26.31,0,0,0,2.6-2.19,33.83,33.83,0,0,0,2.93-3.16,30.69,30.69,0,0,0,2.7-3.86q1.39-2.36,2.68-5t2.32-4.69Z"/><path class="cls-1" d="M276.88,3.34a4.65,4.65,0,0,1-.41,2.12,7.71,7.71,0,0,0-.59,2.41c0,.32-.08.5-.3.54s-.34-.09-.36-.41a1.39,1.39,0,0,1,.07-.53,1.45,1.45,0,0,0,.07-.53,3.52,3.52,0,0,0-.68-2,4.4,4.4,0,0,0-1.55-1.3,7,7,0,0,0-2-.66,9.06,9.06,0,0,0-2-.13,17.27,17.27,0,0,0-5.4,1.43,19.43,19.43,0,0,0-6.8,5.41,72.21,72.21,0,0,0-6.44,8.67q-3.12,4.88-5.89,10-1.73,3.24-3.89,7.4t-4.14,8.12l-3.53,7q-1.55,3.08-2,4.15-.34.78-.24.78t.73-.61q1.53-1.7,3.16-3.31t3.53-3.52a5.64,5.64,0,0,1-.16-1.23q0-.76,1.11-1.54a8.64,8.64,0,0,1,1.8-1c.13,0,.2.12.21.37a1,1,0,0,0,.12.47q.45-.4,2.08-2T247,40.31l3.5-3a6.29,6.29,0,0,1,2-1.39.73.73,0,0,1,.54.21,3.06,3.06,0,0,1,.58,1q0,.57-.9.91A15.24,15.24,0,0,0,250,39.43a37.17,37.17,0,0,0-3.16,2.36q-1.6,1.33-3.1,2.64t-2.41,2.22a25.85,25.85,0,0,0,.53,2.73q.37,1.51.83,3t1.06,2.94a23,23,0,0,0,1.23,2.55,3.08,3.08,0,0,0,1.46,1.45,3.93,3.93,0,0,0,1.88.38,6,6,0,0,0,3.12-1.31,23.56,23.56,0,0,0,3.41-3.09,44.44,44.44,0,0,0,3.26-4q1.55-2.13,2.69-4c.17-.33.37-.4.61-.22s.26.37.08.57q-1.32,2-2.84,4t-3.08,3.78a40.66,40.66,0,0,1-3.11,3.21,21.68,21.68,0,0,1-2.83,2.25,9.1,9.1,0,0,1-3.83,1.35,4.17,4.17,0,0,1-2.21-.45,4.63,4.63,0,0,1-1.77-2,20.51,20.51,0,0,1-1.54-4q-.76-2.53-1.73-6.48-2.88,3.11-5.75,6.4A33.3,33.3,0,0,0,228,62.88a.74.74,0,0,1-.73.51,1.16,1.16,0,0,1-1.09-.75,3.49,3.49,0,0,1-.46-1.45l0-.38a.84.84,0,0,1,.07-.38A30.65,30.65,0,0,0,227.57,57q.94-2,2.36-4.89t3.49-6.9q2.07-4,5.11-9.51,1.39-2.55,3.18-5.55t3.77-6.1q2-3.1,4.05-6.12t4-5.5q1.43-1.79,3.09-3.64a38.7,38.7,0,0,1,3.48-3.42,31.43,31.43,0,0,1,3.8-2.82,15.57,15.57,0,0,1,4-1.83l1.83-.48A8.55,8.55,0,0,1,271.56,0a6.62,6.62,0,0,1,1.67.15,7,7,0,0,1,1.7.58,4.34,4.34,0,0,1,1.34,1A2.55,2.55,0,0,1,276.88,3.34Z"/><path class="cls-1" d="M279.77,48.6a45.39,45.39,0,0,1-3.62,4.33,36.28,36.28,0,0,1-4.63,4.15,27.71,27.71,0,0,1-5.26,3.14,15.25,15.25,0,0,1-5.5,1.39q-4.46.24-4.67-3.75A14.21,14.21,0,0,1,257.15,52a24.25,24.25,0,0,1,3.26-5.88A23,23,0,0,1,265,41.54a9,9,0,0,1,4.89-2,2.78,2.78,0,0,1,1.88.38,1.6,1.6,0,0,1,.59,1.21,5.3,5.3,0,0,1-.58,2.51,8.64,8.64,0,0,1-2,2.63,12.18,12.18,0,0,1-3.5,2.19,15.13,15.13,0,0,1-5.18,1.08,15.05,15.05,0,0,0-.9,2.76,12.72,12.72,0,0,0-.37,3.78q.21,3.9,3.72,3.71A11,11,0,0,0,268,58.47a26,26,0,0,0,4.37-2.85A32.49,32.49,0,0,0,276.19,52a35.54,35.54,0,0,0,2.9-3.63.37.37,0,0,1,.42-.12A.37.37,0,0,1,279.77,48.6Zm-10.36-6.87a1.09,1.09,0,0,0-1.3-1.17,3.36,3.36,0,0,0-1.91.82,10.51,10.51,0,0,0-1.85,2,24.77,24.77,0,0,0-1.67,2.56,21.42,21.42,0,0,0-1.29,2.64,2.1,2.1,0,0,0,.67.11,7.52,7.52,0,0,0,.76,0,6.89,6.89,0,0,0,4.74-2.2A6.1,6.1,0,0,0,269.41,41.73Z"/><path class="cls-1" d="M296,39.65a15.32,15.32,0,0,0-1.1,1.68,9.29,9.29,0,0,0-.73,1.47.37.37,0,0,1-.36.3c-.06,0-.16-.09-.3-.27a4.33,4.33,0,0,0-.55-.59,3.5,3.5,0,0,0-.94-.57,3.67,3.67,0,0,0-1.63-.2,5.74,5.74,0,0,0-2.71,1,14.31,14.31,0,0,0-2.56,2,21.09,21.09,0,0,0-3,3.49q-1.28,1.88-2.41,3.89T277.5,56q-1,2.1-2.25,4.26-.08.29-.55.32-.19,0-.84-.53c-.43-.36-.65-.63-.66-.82a3.94,3.94,0,0,1,.57-1.75q1.38-2.74,2.8-5.53l2.67-5.24q1.25-2.44,2.2-4.26a28.29,28.29,0,0,0,1.28-2.69q.43-.88.62-.89a3,3,0,0,1,1,.42,1.49,1.49,0,0,1,.83,1.29,2.6,2.6,0,0,1-.28,1q-.3.68-.69,1.42t-.73,1.42q-.35.69-.52,1c-.17.33-.2.49-.07.48a.77.77,0,0,0,.46-.31q.9-1,2.21-2.21a32.51,32.51,0,0,1,2.78-2.29,21.9,21.9,0,0,1,2.9-1.82,6.5,6.5,0,0,1,2.58-.8,2.53,2.53,0,0,1,1.49.35A1.17,1.17,0,0,1,296,39.65Z"/><path class="cls-1" d="M295.79,58a3.42,3.42,0,0,1-2.12-.46,2,2,0,0,1-.85-1.67q-.1-1.9,2-5.77T300,41a9,9,0,0,1,.58-.75,3.36,3.36,0,0,1,.5-.45l1.27-.31a8.68,8.68,0,0,1,1-.2c.25,0,.38.08.4.27q-3.1,6.16-5.23,10t-2,6q.06,1.14,1.1,1.08a3.7,3.7,0,0,0,1.22-.35,12.08,12.08,0,0,0,1.57-.85c.55-.35,1.07-.71,1.56-1.08a5.33,5.33,0,0,0,1.09-1.06,19.51,19.51,0,0,0,2.3-4.17q1.49-3.27,3.64-7.67a38,38,0,0,1,1.95-3.63q.92-1.48,1.59-1.51a1.87,1.87,0,0,1,.76.91,3.79,3.79,0,0,1,.41,1.5,5.17,5.17,0,0,1-.76,1.8q-.78,1.42-2,3.34t-2.69,4.09q-1.46,2.17-2.78,4.05-3.14,5.41-6.31,11.14t-6.41,11.1q-3.23,5.36-6.69,10.16a62.18,62.18,0,0,1-7.21,8.43A35.86,35.86,0,0,1,271,98.68a20.57,20.57,0,0,1-8.77,2.47,9.34,9.34,0,0,1-5-1.07q-2.25-1.22-2.43-4.54a9,9,0,0,1,.06-1.57,6.8,6.8,0,0,1,.26-1.3.62.62,0,0,1,.27-.4c.12-.07.19,0,.2.28a6.77,6.77,0,0,0,2.15,4.55q2,2,6.85,1.73a17,17,0,0,0,7.63-2.36,35.86,35.86,0,0,0,7.22-5.58A59.87,59.87,0,0,0,286.08,83q3.19-4.45,6.12-9.28t5.53-9.67q2.6-4.85,4.75-9.16.17-.39,0-.29a1.11,1.11,0,0,0-.28.2,19.51,19.51,0,0,1-2.75,2A7.58,7.58,0,0,1,295.79,58Z"/><text class="cls-2" transform="translate(39.2 90.15)">in PIT<tspan class="cls-3" x="90.19" y="0">T</tspan><tspan x="108.05" y="0">SBURGH</tspan></text></g></g></svg>