<svg xmlns="http://www.w3.org/2000/svg" viewBox="0 0 22.41 20.01"><defs><style>.cls-1{stroke:#000;stroke-miterlimit:10;stroke-width:0.25px;}</style></defs><title>Asset 8</title><g id="Layer_2" data-name="Layer 2"><g id="Layer_1-2" data-name="Layer 1"><g id="shopping"><path class="cls-1" d="M16.33,19.88a2.09,2.09,0,1,1,2.09-2.09A2.09,2.09,0,0,1,16.33,19.88Zm0-3.45a1.36,1.36,0,1,0,1.36,1.36A1.36,1.36,0,0,0,16.33,16.43Z"/><path class="cls-1" d="M8,19.88a2.09,2.09,0,1,1,2.09-2.09A2.09,2.09,0,0,1,8,19.88Zm0-3.45A1.36,1.36,0,1,0,9.4,17.79,1.36,1.36,0,0,0,8,16.43Z"/><path class="cls-1" d="M17.15,14.77h-10a1.75,1.75,0,0,1-1.71-1.42L3.58,3.49a.37.37,0,0,1,.36-.43H21.23a1.06,1.06,0,0,1,1,1.44l-3.44,9.15A1.76,1.76,0,0,1,17.15,14.77ZM4.38,3.79l1.77,9.42a1,1,0,0,0,1,.82h10a1,1,0,0,0,.95-.65l3.44-9.15a.33.33,0,0,0-.3-.45H4.38Z"/><path class="cls-1" d="M3.94,3.79a.37.37,0,0,1-.36-.28L3.15,1.64a1,1,0,0,0-1-.78H.49a.37.37,0,0,1,0-.73H2.16a1.74,1.74,0,0,1,1.7,1.35L4.3,3.34A.37.37,0,0,1,4,3.78Z"/><path class="cls-1" d="M10.46,6.15h-6a.37.37,0,1,1,0-.73h6a.37.37,0,1,1,0,.73Z"/></g></g></g></svg>