<svg xmlns="http://www.w3.org/2000/svg" viewBox="0 0 368.37 207.84"><defs><style>.cls-1{font-size:38.03px;fill:#8c6239;font-family:Zapfino, Zapfino;}.cls-2{letter-spacing:-0.02em;}.cls-3{font-size:38.63px;}.cls-3,.cls-6{font-family:SourceSansPro-Black, Source Sans Pro;}.cls-4{letter-spacing:-0.03em;}.cls-5{fill:none;stroke:#000;stroke-miterlimit:10;}.cls-6{font-size:13.59px;letter-spacing:0.3em;}.cls-7{letter-spacing:0.28em;}.cls-8{letter-spacing:0.3em;}.cls-9{letter-spacing:0.27em;}</style></defs><title>title</title><g id="Layer_2" data-name="Layer 2"><g id="Layer_1-2" data-name="Layer 1"><text class="cls-1" transform="matrix(1, -0.05, 0.05, 1, 3.72, 88.79)">F<tspan class="cls-2" x="33.28" y="0">r</tspan><tspan x="50.87" y="0">eshly Baked</tspan></text><text class="cls-3" transform="translate(28.02 119.03)">CINNAMON ROL<tspan class="cls-4" x="271.23" y="0">L</tspan><tspan x="290.55" y="0">S</tspan></text><line class="cls-5" x1="64.27" y1="133.94" x2="160.68" y2="133.94"/><polygon points="64.76 133.72 61.57 131.79 57.68 131.79 59.83 133.94 57.68 136.09 61.57 136.09 64.76 134.17 64.76 133.72"/><line class="cls-5" x1="207.68" y1="134.44" x2="304.09" y2="134.44"/><polygon points="303.6 134.22 306.8 132.29 310.68 132.29 308.53 134.44 310.68 136.59 306.8 136.59 303.6 134.67 303.6 134.22"/><rect x="182.68" y="130.44" width="6" height="6" transform="translate(-39.97 170.38) rotate(-45)"/><text class="cls-6" transform="translate(78.12 155.73)">REA<tspan class="cls-7" x="36.29" y="0">D</tspan><tspan class="cls-8" x="48.82" y="0">Y </tspan><tspan class="cls-9" x="67.09" y="0">T</tspan><tspan x="78.43" y="0">O BE SHIPPED</tspan></text></g></g></svg>